<svg width="175" height="36" viewBox="0 0 175 36" fill="none" xmlns="http://www.w3.org/2000/svg">
<path fill-rule="evenodd" clip-rule="evenodd" d="M15.4272 5.01935L19.9915 6.24643L18.5647 7.17721C18.4462 7.0866 18.3085 7.01718 18.1557 6.9761C17.5275 6.80721 16.8818 7.18126 16.7134 7.81157C16.5451 8.44188 16.9179 9.08976 17.5461 9.25865C18.1743 9.42754 18.8201 9.05349 18.9884 8.42318C19.0416 8.22402 19.0407 8.0231 18.9949 7.8361L21.0114 6.52063L21.4937 6.6503L24.2693 11.4739L24.2694 11.4739L18.8849 31.6364L13.5767 30.2093L14.4167 25.5423L14.6063 25.5933L18.8178 24.2791L14.7215 24.401L14.6267 24.3756L15.1913 21.2383L18.4187 19.6867L15.4598 20.1144L15.3966 20.0974L15.9674 16.9263L17.3357 16.1336L16.0966 16.2082L16.0966 16.2082L16.9366 11.5412L15.7175 16.1063L15.7174 16.1063L16.9366 11.5412L15.3383 16.0043L14.3025 15.3181L15.0924 16.691L14.0064 19.7237L13.9432 19.7067L11.5939 17.8519L13.6157 20.8147L12.5413 23.8149L12.4465 23.7894L8.95973 21.6288L11.9522 24.8797L12.1417 24.9307L10.5434 29.3939L5.23525 27.9668L10.6198 7.80428L10.6197 7.80425L15.4272 5.01935ZM15.5143 16.8671L14.7015 19.9106L14.7015 19.9106L15.5143 16.8671L15.5143 16.8671ZM14.3967 21.0518L14.3967 21.0518L13.584 24.0952L13.584 24.0952L14.3967 21.0518ZM13.2792 25.2365L12.06 29.8016L12.0601 29.8016L13.2792 25.2365L13.2792 25.2365Z" fill="#95D6A3"/>
<path fill-rule="evenodd" clip-rule="evenodd" d="M8.90939 9.71492L8.77237 9.20183L8.77241 9.20182L5.68271 7.41202L5.3726 7.49539L4.67157 8.8777C4.75698 8.967 4.82179 9.07855 4.85597 9.20654C4.96415 9.61163 4.72456 10.028 4.32082 10.1366C3.91708 10.2451 3.50209 10.0047 3.39391 9.59961C3.28573 9.19452 3.52533 8.77814 3.92906 8.6696C4.02727 8.6432 4.12614 8.63744 4.2211 8.64968L4.71712 7.67161L1.78388 8.4602L4.45266e-05 11.5602L0 11.5602L3.46053 24.5183L4.99791 24.105L5.96229 20.5571L3.5036 19.7899L6.13625 19.8683L6.15057 19.8644L6.17996 19.7563L5.83427 17.8356L3.76007 16.8384L5.66169 17.1133L5.70231 17.1024L5.33549 15.0644L4.45613 14.555L5.25246 14.6029L4.71261 11.6035L5.73981 14.4719L6.40555 14.0309L5.89783 14.9132L6.59579 16.8622L6.6364 16.8513L7.06064 16.5164L8.90939 9.71492Z" fill="#95D6A3"/>
<path d="M44.5094 19.064C44.5094 19.544 44.4774 19.976 44.4134 20.36H34.6934C34.7734 21.32 35.1094 22.072 35.7014 22.616C36.2934 23.16 37.0214 23.432 37.8854 23.432C39.1334 23.432 40.0214 22.896 40.5494 21.824H44.1734C43.7894 23.104 43.0534 24.16 41.9654 24.992C40.8774 25.808 39.5414 26.216 37.9574 26.216C36.6774 26.216 35.5254 25.936 34.5014 25.376C33.4934 24.8 32.7014 23.992 32.1254 22.952C31.5654 21.912 31.2854 20.712 31.2854 19.352C31.2854 17.976 31.5654 16.768 32.1254 15.728C32.6854 14.688 33.4694 13.888 34.4774 13.328C35.4854 12.768 36.6454 12.488 37.9574 12.488C39.2214 12.488 40.3494 12.76 41.3414 13.304C42.3494 13.848 43.1254 14.624 43.6694 15.632C44.2294 16.624 44.5094 17.768 44.5094 19.064ZM41.0294 18.104C41.0134 17.24 40.7014 16.552 40.0934 16.04C39.4854 15.512 38.7414 15.248 37.8614 15.248C37.0294 15.248 36.3254 15.504 35.7494 16.016C35.1894 16.512 34.8454 17.208 34.7174 18.104H41.0294ZM46.2979 19.352C46.2979 17.976 46.5779 16.776 47.1379 15.752C47.6979 14.712 48.4739 13.912 49.4659 13.352C50.4579 12.776 51.5939 12.488 52.8739 12.488C54.5219 12.488 55.8819 12.904 56.9539 13.736C58.0419 14.552 58.7699 15.704 59.1379 17.192H55.5139C55.3219 16.616 54.9939 16.168 54.5299 15.848C54.0819 15.512 53.5219 15.344 52.8499 15.344C51.8899 15.344 51.1299 15.696 50.5699 16.4C50.0099 17.088 49.7299 18.072 49.7299 19.352C49.7299 20.616 50.0099 21.6 50.5699 22.304C51.1299 22.992 51.8899 23.336 52.8499 23.336C54.2099 23.336 55.0979 22.728 55.5139 21.512H59.1379C58.7699 22.952 58.0419 24.096 56.9539 24.944C55.8659 25.792 54.5059 26.216 52.8739 26.216C51.5939 26.216 50.4579 25.936 49.4659 25.376C48.4739 24.8 47.6979 24 47.1379 22.976C46.5779 21.936 46.2979 20.728 46.2979 19.352ZM67.7034 26.216C66.4234 26.216 65.2714 25.936 64.2474 25.376C63.2234 24.8 62.4154 23.992 61.8234 22.952C61.2474 21.912 60.9594 20.712 60.9594 19.352C60.9594 17.992 61.2554 16.792 61.8474 15.752C62.4554 14.712 63.2794 13.912 64.3194 13.352C65.3594 12.776 66.5194 12.488 67.7994 12.488C69.0794 12.488 70.2394 12.776 71.2794 13.352C72.3194 13.912 73.1354 14.712 73.7274 15.752C74.3354 16.792 74.6394 17.992 74.6394 19.352C74.6394 20.712 74.3274 21.912 73.7034 22.952C73.0954 23.992 72.2634 24.8 71.2074 25.376C70.1674 25.936 68.9994 26.216 67.7034 26.216ZM67.7034 23.288C68.3114 23.288 68.8794 23.144 69.4074 22.856C69.9514 22.552 70.3834 22.104 70.7034 21.512C71.0234 20.92 71.1834 20.2 71.1834 19.352C71.1834 18.088 70.8474 17.12 70.1754 16.448C69.5194 15.76 68.7114 15.416 67.7514 15.416C66.7914 15.416 65.9834 15.76 65.3274 16.448C64.6874 17.12 64.3674 18.088 64.3674 19.352C64.3674 20.616 64.6794 21.592 65.3034 22.28C65.9434 22.952 66.7434 23.288 67.7034 23.288ZM82.1521 26.216C81.1441 26.216 80.2401 26.048 79.4401 25.712C78.6401 25.36 78.0081 24.88 77.5441 24.272C77.0801 23.648 76.8241 22.936 76.7761 22.136H79.0321C79.0961 22.792 79.4001 23.328 79.9441 23.744C80.5041 24.16 81.2321 24.368 82.1281 24.368C82.9601 24.368 83.6161 24.184 84.0961 23.816C84.5761 23.448 84.8161 22.984 84.8161 22.424C84.8161 21.848 84.5601 21.424 84.0481 21.152C83.5361 20.864 82.7441 20.584 81.6721 20.312C80.6961 20.056 79.8961 19.8 79.2721 19.544C78.6641 19.272 78.1361 18.88 77.6881 18.368C77.2561 17.84 77.0401 17.152 77.0401 16.304C77.0401 15.632 77.2401 15.016 77.6401 14.456C78.0401 13.896 78.6081 13.456 79.3441 13.136C80.0801 12.8 80.9201 12.632 81.8641 12.632C83.3201 12.632 84.4961 13 85.3921 13.736C86.2881 14.472 86.7681 15.48 86.8321 16.76H84.6481C84.6001 16.072 84.3201 15.52 83.8081 15.104C83.3121 14.688 82.6401 14.48 81.7921 14.48C81.0081 14.48 80.3841 14.648 79.9201 14.984C79.4561 15.32 79.2241 15.76 79.2241 16.304C79.2241 16.736 79.3601 17.096 79.6321 17.384C79.9201 17.656 80.2721 17.88 80.6881 18.056C81.1201 18.216 81.7121 18.4 82.4641 18.608C83.4081 18.864 84.1761 19.12 84.7681 19.376C85.3601 19.616 85.8641 19.984 86.2801 20.48C86.7121 20.976 86.9361 21.624 86.9521 22.424C86.9521 23.144 86.7521 23.792 86.3521 24.368C85.9521 24.944 85.3841 25.4 84.6481 25.736C83.9281 26.056 83.0961 26.216 82.1521 26.216ZM102.235 18.92C102.235 19.336 102.211 19.776 102.163 20.24H91.6511C91.7311 21.536 92.1711 22.552 92.9711 23.288C93.7871 24.008 94.7711 24.368 95.9231 24.368C96.8671 24.368 97.6511 24.152 98.2751 23.72C98.9151 23.272 99.3631 22.68 99.6191 21.944H101.971C101.619 23.208 100.915 24.24 99.8591 25.04C98.8031 25.824 97.4911 26.216 95.9231 26.216C94.6751 26.216 93.5551 25.936 92.5631 25.376C91.5871 24.816 90.8191 24.024 90.2591 23C89.6991 21.96 89.4191 20.76 89.4191 19.4C89.4191 18.04 89.6911 16.848 90.2351 15.824C90.7791 14.8 91.5391 14.016 92.5151 13.472C93.5071 12.912 94.6431 12.632 95.9231 12.632C97.1711 12.632 98.2751 12.904 99.2351 13.448C100.195 13.992 100.931 14.744 101.443 15.704C101.971 16.648 102.235 17.72 102.235 18.92ZM99.9791 18.464C99.9791 17.632 99.7951 16.92 99.4271 16.328C99.0591 15.72 98.5551 15.264 97.9151 14.96C97.2911 14.64 96.5951 14.48 95.8271 14.48C94.7231 14.48 93.7791 14.832 92.9951 15.536C92.2271 16.24 91.7871 17.216 91.6751 18.464H99.9791ZM107.502 14.984C107.886 14.232 108.43 13.648 109.134 13.232C109.854 12.816 110.726 12.608 111.75 12.608V14.864H111.174C108.726 14.864 107.502 16.192 107.502 18.848V26H105.318V12.848H107.502V14.984ZM119.367 23.984L123.447 12.848H125.775L120.615 26H118.071L112.911 12.848H115.263L119.367 23.984ZM129.252 10.712C128.836 10.712 128.484 10.568 128.196 10.28C127.908 9.992 127.764 9.64 127.764 9.224C127.764 8.808 127.908 8.456 128.196 8.168C128.484 7.88 128.836 7.736 129.252 7.736C129.652 7.736 129.988 7.88 130.26 8.168C130.548 8.456 130.692 8.808 130.692 9.224C130.692 9.64 130.548 9.992 130.26 10.28C129.988 10.568 129.652 10.712 129.252 10.712ZM130.308 12.848V26H128.124V12.848H130.308ZM133.414 19.4C133.414 18.04 133.686 16.856 134.23 15.848C134.774 14.824 135.526 14.032 136.486 13.472C137.462 12.912 138.574 12.632 139.822 12.632C141.438 12.632 142.766 13.024 143.806 13.808C144.862 14.592 145.558 15.68 145.894 17.072H143.542C143.318 16.272 142.878 15.64 142.222 15.176C141.582 14.712 140.782 14.48 139.822 14.48C138.574 14.48 137.566 14.912 136.798 15.776C136.03 16.624 135.646 17.832 135.646 19.4C135.646 20.984 136.03 22.208 136.798 23.072C137.566 23.936 138.574 24.368 139.822 24.368C140.782 24.368 141.582 24.144 142.222 23.696C142.862 23.248 143.302 22.608 143.542 21.776H145.894C145.542 23.12 144.838 24.2 143.782 25.016C142.726 25.816 141.406 26.216 139.822 26.216C138.574 26.216 137.462 25.936 136.486 25.376C135.526 24.816 134.774 24.024 134.23 23C133.686 21.976 133.414 20.776 133.414 19.4ZM161.009 18.92C161.009 19.336 160.985 19.776 160.937 20.24H150.425C150.505 21.536 150.945 22.552 151.745 23.288C152.561 24.008 153.545 24.368 154.697 24.368C155.641 24.368 156.425 24.152 157.049 23.72C157.689 23.272 158.137 22.68 158.393 21.944H160.745C160.393 23.208 159.689 24.24 158.633 25.04C157.577 25.824 156.265 26.216 154.697 26.216C153.449 26.216 152.329 25.936 151.337 25.376C150.361 24.816 149.593 24.024 149.033 23C148.473 21.96 148.193 20.76 148.193 19.4C148.193 18.04 148.465 16.848 149.009 15.824C149.553 14.8 150.313 14.016 151.289 13.472C152.281 12.912 153.417 12.632 154.697 12.632C155.945 12.632 157.049 12.904 158.009 13.448C158.969 13.992 159.705 14.744 160.217 15.704C160.745 16.648 161.009 17.72 161.009 18.92ZM158.753 18.464C158.753 17.632 158.569 16.92 158.201 16.328C157.833 15.72 157.329 15.264 156.689 14.96C156.065 14.64 155.369 14.48 154.601 14.48C153.497 14.48 152.553 14.832 151.769 15.536C151.001 16.24 150.561 17.216 150.449 18.464H158.753ZM168.747 26.216C167.739 26.216 166.835 26.048 166.035 25.712C165.235 25.36 164.603 24.88 164.139 24.272C163.675 23.648 163.419 22.936 163.371 22.136H165.627C165.691 22.792 165.995 23.328 166.539 23.744C167.099 24.16 167.827 24.368 168.723 24.368C169.555 24.368 170.211 24.184 170.691 23.816C171.171 23.448 171.411 22.984 171.411 22.424C171.411 21.848 171.155 21.424 170.643 21.152C170.131 20.864 169.339 20.584 168.267 20.312C167.291 20.056 166.491 19.8 165.867 19.544C165.259 19.272 164.731 18.88 164.283 18.368C163.851 17.84 163.635 17.152 163.635 16.304C163.635 15.632 163.835 15.016 164.235 14.456C164.635 13.896 165.203 13.456 165.939 13.136C166.675 12.8 167.515 12.632 168.459 12.632C169.915 12.632 171.091 13 171.987 13.736C172.883 14.472 173.363 15.48 173.427 16.76H171.243C171.195 16.072 170.915 15.52 170.403 15.104C169.907 14.688 169.235 14.48 168.387 14.48C167.603 14.48 166.979 14.648 166.515 14.984C166.051 15.32 165.819 15.76 165.819 16.304C165.819 16.736 165.955 17.096 166.227 17.384C166.515 17.656 166.867 17.88 167.283 18.056C167.715 18.216 168.307 18.4 169.059 18.608C170.003 18.864 170.771 19.12 171.363 19.376C171.955 19.616 172.459 19.984 172.875 20.48C173.307 20.976 173.531 21.624 173.547 22.424C173.547 23.144 173.347 23.792 172.947 24.368C172.547 24.944 171.979 25.4 171.243 25.736C170.523 26.056 169.691 26.216 168.747 26.216Z" fill="white"/>
</svg>
