<svg width="26" height="28" viewBox="0 0 26 28" fill="none" xmlns="http://www.w3.org/2000/svg">
<g id="Group 6">
<g id="Group 2">
<path id="Subtract" fill-rule="evenodd" clip-rule="evenodd" d="M15.4272 1.01935L19.9915 2.24643L18.5647 3.17721C18.4462 3.0866 18.3085 3.01718 18.1557 2.9761C17.5275 2.80721 16.8818 3.18126 16.7134 3.81157C16.5451 4.44188 16.9179 5.08976 17.5461 5.25865C18.1743 5.42754 18.8201 5.05349 18.9884 4.42318C19.0416 4.22402 19.0407 4.0231 18.9949 3.8361L21.0114 2.52063L21.4937 2.6503L24.2693 7.47387L24.2694 7.4739L18.8849 27.6364L13.5767 26.2093L14.4167 21.5423L14.6063 21.5933L18.8178 20.2791L14.7215 20.401L14.6267 20.3756L15.1913 17.2383L18.4187 15.6867L15.4598 16.1144L15.3966 16.0974L15.9674 12.9263L17.3357 12.1336L16.0966 12.2082L16.0966 12.2082L16.9366 7.5412L15.7175 12.1063L15.7174 12.1063L16.9366 7.5412L15.3383 12.0043L14.3025 11.3181L15.0924 12.691L14.0064 15.7237L13.9432 15.7067L11.5939 13.8519L13.6157 16.8147L12.5413 19.8149L12.4465 19.7894L8.95973 17.6288L11.9522 20.8797L12.1417 20.9307L10.5434 25.3939L5.23525 23.9668L10.6198 3.80428L10.6197 3.80425L15.4272 1.01935ZM15.5143 12.8671L14.7015 15.9106L14.7015 15.9106L15.5143 12.8671L15.5143 12.8671ZM14.3967 17.0518L14.3967 17.0518L13.584 20.0952L13.584 20.0952L14.3967 17.0518ZM13.2792 21.2365L12.06 25.8016L12.0601 25.8016L13.2792 21.2365L13.2792 21.2365Z" fill="#95D6A3"/>
</g>
<path id="Subtract_2" fill-rule="evenodd" clip-rule="evenodd" d="M8.90939 5.71492L8.77237 5.20183L8.77241 5.20182L5.68271 3.41202L5.3726 3.49539L4.67157 4.8777C4.75698 4.967 4.82179 5.07855 4.85597 5.20654C4.96415 5.61163 4.72456 6.02801 4.32082 6.13655C3.91708 6.24509 3.50209 6.0047 3.39391 5.59961C3.28573 5.19452 3.52533 4.77814 3.92906 4.6696C4.02727 4.6432 4.12614 4.63744 4.2211 4.64968L4.71712 3.67161L1.78388 4.4602L4.45266e-05 7.56022L0 7.56023L3.46053 20.5183L4.99791 20.105L5.96229 16.5571L3.5036 15.7899L6.13625 15.8683L6.15057 15.8644L6.17996 15.7563L5.83427 13.8356L3.76007 12.8384L5.66169 13.1133L5.70231 13.1024L5.33549 11.0644L4.45613 10.555L5.25246 10.6029L4.71261 7.60354L5.73981 10.4719L6.40555 10.0309L5.89783 10.9132L6.59579 12.8622L6.6364 12.8513L7.06064 12.5164L8.90939 5.71492Z" fill="#95D6A3"/>
</g>
</svg>
