<svg width="24" height="24" viewBox="0 0 24 24" fill="none" xmlns="http://www.w3.org/2000/svg">
<g id="Cart">
<path id="shopping_cart" d="M8.0432 22C7.56295 22 7.15824 21.8447 6.82908 21.5341C6.4999 21.2235 6.33531 20.8416 6.33531 20.3884C6.33531 19.9352 6.4999 19.5534 6.82908 19.2428C7.15824 18.9321 7.56295 18.7768 8.0432 18.7768C8.52343 18.7768 8.92813 18.9321 9.25731 19.2428C9.58647 19.5534 9.75105 19.9352 9.75105 20.3884C9.75105 20.8416 9.58647 21.2235 9.25731 21.5341C8.92813 21.8447 8.52343 22 8.0432 22ZM18.7282 22C18.248 22 17.8433 21.8447 17.5141 21.5341C17.185 21.2235 17.0204 20.8416 17.0204 20.3884C17.0204 19.9352 17.185 19.5534 17.5141 19.2428C17.8433 18.9321 18.248 18.7768 18.7282 18.7768C19.2085 18.7768 19.6132 18.9321 19.9424 19.2428C20.2715 19.5534 20.4361 19.9352 20.4361 20.3884C20.4361 20.8416 20.2715 21.2235 19.9424 21.5341C19.6132 21.8447 19.2085 22 18.7282 22ZM6.41854 5.22314L9.45764 11.2562H17.0116C17.143 11.2562 17.2598 11.2252 17.362 11.1632C17.4641 11.1012 17.5517 11.0151 17.6247 10.905L20.6025 5.80164C20.6901 5.65013 20.6974 5.51584 20.6244 5.39877C20.5514 5.28168 20.4274 5.22314 20.2522 5.22314H6.41854ZM5.86238 4.14876H20.6857C21.1806 4.14876 21.5528 4.33918 21.8024 4.72003C22.052 5.10088 22.0651 5.4931 21.8418 5.89669L18.5881 11.4917C18.4232 11.7534 18.209 11.9587 17.9455 12.1074C17.682 12.2562 17.3926 12.3306 17.0773 12.3306H8.94529L7.5615 14.7273C7.44472 14.8926 7.44106 15.0716 7.55054 15.2644C7.66001 15.4573 7.82423 15.5537 8.0432 15.5537H20.4361V16.6281H8.0432C7.37903 16.6281 6.88346 16.364 6.55648 15.8357C6.2295 15.3075 6.22147 14.7768 6.5324 14.2438L8.24461 11.3636L4.05817 3.07438H2V2H4.78073L5.86238 4.14876Z" fill="white"/>
</g>
</svg>
