<svg width="24" height="24" viewBox="0 0 24 24" fill="none" xmlns="http://www.w3.org/2000/svg">
<g id="Profil">
<path id="Subtract" fill-rule="evenodd" clip-rule="evenodd" d="M8.97321 10.3125C9.8125 11.1518 10.8214 11.5715 12 11.5715C13.1786 11.5715 14.1875 11.1518 15.0268 10.3125C15.8661 9.47325 16.2857 8.46432 16.2857 7.28575C16.2857 6.10716 15.8661 5.09821 15.0268 4.25893C14.1875 3.41964 13.1786 3 12 3C10.8214 3 9.8125 3.41964 8.97321 4.25893C8.13393 5.09821 7.71429 6.10716 7.71429 7.28575C7.71429 8.46432 8.13393 9.47325 8.97321 10.3125ZM2 19.5495V21.9011H3.43359V20.4725H3.42857V19.5495C3.42857 19.2326 3.53068 18.935 3.73489 18.6566C3.93911 18.3782 4.22162 18.1429 4.58243 17.9506C5.75824 17.381 6.97057 16.9446 8.21943 16.6415C9.46826 16.3384 10.7285 16.1868 12 16.1868C13.2715 16.1868 14.5317 16.3384 15.7806 16.6415C17.0294 16.9446 18.2418 17.381 19.4176 17.9506C19.7784 18.1429 20.0609 18.3782 20.2651 18.6566C20.4693 18.935 20.5714 19.2326 20.5714 19.5495V20.4725H20.5664V21.9011H22V19.5495C22 18.9597 21.8283 18.408 21.4849 17.8943C21.1415 17.3805 20.6795 16.9817 20.0989 16.6978C18.7509 16.0513 17.402 15.5664 16.0522 15.2431C14.7024 14.9199 13.3516 14.7583 12 14.7583C10.6484 14.7583 9.29762 14.9199 7.94779 15.2431C6.59798 15.5664 5.24908 16.0513 3.90111 16.6978C3.32051 16.9817 2.85851 17.3805 2.51511 17.8943C2.1717 18.408 2 18.9597 2 19.5495ZM14.0179 9.30361C13.4583 9.86313 12.7857 10.1429 12 10.1429C11.2143 10.1429 10.5417 9.86313 9.98214 9.30361C9.42262 8.74409 9.14286 8.07147 9.14286 7.28575C9.14286 6.50004 9.42262 5.82742 9.98214 5.26789C10.5417 4.70837 11.2143 4.42861 12 4.42861C12.7857 4.42861 13.4583 4.70837 14.0179 5.26789C14.5774 5.82742 14.8571 6.50004 14.8571 7.28575C14.8571 8.07147 14.5774 8.74409 14.0179 9.30361Z" fill="white"/>
</g>
</svg>
