<svg width="24" height="24" viewBox="0 0 24 24" fill="none" xmlns="http://www.w3.org/2000/svg">
<g id="Search">
<path id="search" d="M21.1361 22L13.493 14.3568C12.8826 14.8764 12.1807 15.2785 11.3873 15.5634C10.5939 15.8482 9.79656 15.9906 8.9953 15.9906C7.04022 15.9906 5.38557 15.3139 4.03135 13.9604C2.67712 12.6069 2 10.9531 2 8.99911C2 7.04509 2.67674 5.39006 4.03022 4.03404C5.38371 2.67801 7.03746 2 8.99148 2C10.9455 2 12.6006 2.67711 13.9566 4.03132C15.3126 5.38554 15.9906 7.0402 15.9906 8.9953C15.9906 9.84349 15.8404 10.6643 15.5399 11.4577C15.2394 12.2512 14.8451 12.9296 14.3568 13.493L22 21.1361L21.1361 22ZM8.9953 14.7699C10.615 14.7699 11.9824 14.2124 13.0974 13.0974C14.2124 11.9824 14.7699 10.615 14.7699 8.9953C14.7699 7.37559 14.2124 6.00822 13.0974 4.8932C11.9824 3.77817 10.615 3.22065 8.9953 3.22065C7.37559 3.22065 6.00822 3.77817 4.8932 4.8932C3.77819 6.00822 3.22068 7.37559 3.22068 8.9953C3.22068 10.615 3.77819 11.9824 4.8932 13.0974C6.00822 14.2124 7.37559 14.7699 8.9953 14.7699Z" fill="#060609"/>
</g>
</svg>
